<?xml version="1.0" encoding="iso-8859-1"?>
<!-- Generator: Adobe Illustrator 19.0.0, SVG Export Plug-In . SVG Version: 6.00 Build 0)  -->
<svg version="1.1" id="Layer_1" xmlns="http://www.w3.org/2000/svg" xmlns:xlink="http://www.w3.org/1999/xlink" x="0px" y="0px"
	 viewBox="0 0 512 512" style="enable-background:new 0 0 512 512;" xml:space="preserve">
<path style="fill:#FFFFFF;" d="M256,508C117.048,508,4,394.952,4,256S117.048,4,256,4s252,113.048,252,252S394.952,508,256,508z"/>
<path style="fill:#999999;" d="M256,8c136.744,0,248,111.256,248,248S392.744,504,256,504S8,392.744,8,256S119.256,8,256,8 M256,0
	C114.616,0,0,114.616,0,256s114.616,256,256,256s256-114.616,256-256S397.384,0,256,0L256,0z"/>
<g style="opacity:0.5;">
	<path style="fill:#FFFFFF;" d="M256,483.832C130.368,483.832,28.168,381.624,28.168,256c0-125.632,102.2-227.832,227.832-227.832
		S483.832,130.368,483.832,256C483.832,381.624,381.632,483.832,256,483.832z"/>
	<path style="fill:#999999;" d="M256,30.168c124.528,0,225.832,101.312,225.832,225.832c0,124.528-101.312,225.832-225.832,225.832
		S30.168,380.528,30.168,256S131.472,30.168,256,30.168 M256,26.168C129.064,26.168,26.168,129.064,26.168,256
		S129.064,485.832,256,485.832S485.832,382.936,485.832,256S382.936,26.168,256,26.168L256,26.168z"/>
</g>
<g>
	<path style="fill:#E21B1B;" d="M171.488,263.504l22.56,3.416c-4.408,12.216-11.008,21.56-19.824,28.016
		c-8.808,6.464-19.12,9.688-30.944,9.688c-13.312,0-23.712-4.008-31.208-12.024s-11.24-19.64-11.24-34.88
		c0-12.368,2.504-23.688,7.528-33.952s11.992-18.12,20.896-23.56s18.6-8.168,29.096-8.168c11.776,0,21.296,3.152,28.568,9.464
		c7.272,6.304,11.552,14.904,12.832,25.792l-21.448,2.08c-1.184-6.328-3.48-10.92-6.864-13.768s-7.904-4.264-13.544-4.264
		c-6.176,0-11.96,1.88-17.328,5.64s-9.656,9.632-12.872,17.624s-4.832,15.968-4.832,23.928c0,8.712,2.096,15.448,6.272,20.192
		s9.392,7.128,15.624,7.128c5.792,0,11.096-1.88,15.92-5.64C165.504,276.44,169.112,270.88,171.488,263.504z"/>
	<path style="fill:#E21B1B;" d="M264.992,302.688h-21.216l-3.936-90.912l-17.296,90.912H202.36l22.72-108.808h31.904l3.344,76.224
		l37.112-76.224h32.28l-22.784,108.808h-20.408l21.448-90.248L264.992,302.688z"/>
	<path style="fill:#E21B1B;" d="M332.464,267.44l21.304-1.12c0.296,6.784,1.456,11.352,3.488,13.728
		c3.264,3.856,9.304,5.8,18.112,5.8c7.32,0,12.616-1.312,15.88-3.936s4.896-5.792,4.896-9.504c0-3.216-1.336-5.936-4.008-8.168
		c-1.88-1.632-7.04-4.28-15.48-7.936c-8.44-3.664-14.592-6.72-18.48-9.168s-6.944-5.624-9.168-9.528
		c-2.232-3.904-3.344-8.488-3.344-13.736c0-9.152,3.312-16.744,9.944-22.784s16.224-9.056,28.8-9.056
		c12.768,0,22.648,2.992,29.648,8.976c7,5.992,10.848,13.952,11.544,23.896l-21.456,0.968c-0.544-5.192-2.424-9.176-5.64-11.952
		c-3.216-2.768-7.968-4.16-14.248-4.16c-6.184,0-10.6,1.096-13.248,3.264c-2.648,2.176-3.968,4.928-3.968,8.24
		c0,3.12,1.208,5.688,3.64,7.72c2.424,2.08,7.792,4.92,16.104,8.528c12.512,5.4,20.488,9.776,23.896,13.144
		c5.096,4.944,7.64,11.304,7.64,19.072c0,9.6-3.8,17.808-11.392,24.6c-7.592,6.808-18.168,10.208-31.728,10.208
		c-9.352,0-17.456-1.576-24.304-4.72c-6.856-3.144-11.688-7.504-14.512-13.096C333.576,281.144,332.264,274.704,332.464,267.44z"/>
</g>
<g>
</g>
<g>
</g>
<g>
</g>
<g>
</g>
<g>
</g>
<g>
</g>
<g>
</g>
<g>
</g>
<g>
</g>
<g>
</g>
<g>
</g>
<g>
</g>
<g>
</g>
<g>
</g>
<g>
</g>
</svg>
